<mxfile host="Electron" agent="Mozilla/5.0 (Windows NT 10.0; Win64; x64) AppleWebKit/537.36 (KHTML, like Gecko) draw.io/21.7.5 Chrome/114.0.5735.289 Electron/25.8.1 Safari/537.36" modified="2024-09-12T07:49:34.046Z" version="21.7.5" etag="5EI1ecZUxwBUm4U06v-z" type="device">
  <diagram id="C5RBs43oDa-KdzZeNtuy" name="Page-1">
    <mxGraphModel dx="1381" dy="808" grid="1" gridSize="10" guides="1" tooltips="1" connect="1" arrows="1" fold="1" page="1" pageScale="1" pageWidth="827" pageHeight="1169" math="0" shadow="0">
      <root>
        <mxCell id="WIyWlLk6GJQsqaUBKTNV-0" />
        <mxCell id="WIyWlLk6GJQsqaUBKTNV-1" parent="WIyWlLk6GJQsqaUBKTNV-0" />
        <mxCell id="1WxUAbwwoIR5ukUB5O0--5" value="&#xa;&lt;span style=&quot;color: rgb(0, 0, 0); font-family: Helvetica; font-size: 12px; font-style: normal; font-variant-ligatures: normal; font-variant-caps: normal; font-weight: 400; letter-spacing: normal; orphans: 2; text-align: center; text-indent: 0px; text-transform: none; widows: 2; word-spacing: 0px; -webkit-text-stroke-width: 0px; white-space: normal; background-color: rgb(251, 251, 251); text-decoration-thickness: initial; text-decoration-style: initial; text-decoration-color: initial; display: inline !important; float: none;&quot;&gt;Gán vị trí chân vào các cảm biến và LCD&lt;/span&gt;&#xa;&#xa;" style="rounded=0;whiteSpace=wrap;html=1;" parent="WIyWlLk6GJQsqaUBKTNV-1" vertex="1">
          <mxGeometry x="250" y="300" width="120" height="60" as="geometry" />
        </mxCell>
        <mxCell id="1Kg0y6q0fFG1aNWEQ2B7-90" value="" style="edgeStyle=orthogonalEdgeStyle;rounded=0;orthogonalLoop=1;jettySize=auto;html=1;" parent="WIyWlLk6GJQsqaUBKTNV-1" source="1WxUAbwwoIR5ukUB5O0--7" target="1Kg0y6q0fFG1aNWEQ2B7-89" edge="1">
          <mxGeometry relative="1" as="geometry" />
        </mxCell>
        <mxCell id="1WxUAbwwoIR5ukUB5O0--7" value="Lưu các thông tin&lt;div&gt;kết&amp;nbsp;&lt;span style=&quot;background-color: initial;&quot;&gt;nối server&lt;/span&gt;&lt;/div&gt;" style="rounded=0;whiteSpace=wrap;html=1;" parent="WIyWlLk6GJQsqaUBKTNV-1" vertex="1">
          <mxGeometry x="250" y="120" width="120" height="60" as="geometry" />
        </mxCell>
        <mxCell id="1WxUAbwwoIR5ukUB5O0--11" value="" style="edgeStyle=orthogonalEdgeStyle;rounded=0;orthogonalLoop=1;jettySize=auto;html=1;" parent="WIyWlLk6GJQsqaUBKTNV-1" target="1WxUAbwwoIR5ukUB5O0--7" edge="1">
          <mxGeometry relative="1" as="geometry">
            <mxPoint x="310" y="90" as="sourcePoint" />
          </mxGeometry>
        </mxCell>
        <mxCell id="1Kg0y6q0fFG1aNWEQ2B7-3" value="Begin" style="rounded=1;whiteSpace=wrap;html=1;" parent="WIyWlLk6GJQsqaUBKTNV-1" vertex="1">
          <mxGeometry x="250" y="30" width="120" height="60" as="geometry" />
        </mxCell>
        <mxCell id="1Kg0y6q0fFG1aNWEQ2B7-76" value="" style="edgeStyle=orthogonalEdgeStyle;rounded=0;orthogonalLoop=1;jettySize=auto;html=1;" parent="WIyWlLk6GJQsqaUBKTNV-1" source="1Kg0y6q0fFG1aNWEQ2B7-71" target="1Kg0y6q0fFG1aNWEQ2B7-75" edge="1">
          <mxGeometry relative="1" as="geometry" />
        </mxCell>
        <mxCell id="1Kg0y6q0fFG1aNWEQ2B7-71" value="Đóng gói các dữ liệu" style="rounded=0;whiteSpace=wrap;html=1;" parent="WIyWlLk6GJQsqaUBKTNV-1" vertex="1">
          <mxGeometry x="665" y="1370" width="120" height="60" as="geometry" />
        </mxCell>
        <mxCell id="1Kg0y6q0fFG1aNWEQ2B7-72" value="" style="edgeStyle=orthogonalEdgeStyle;rounded=0;orthogonalLoop=1;jettySize=auto;html=1;" parent="WIyWlLk6GJQsqaUBKTNV-1" target="1Kg0y6q0fFG1aNWEQ2B7-71" edge="1">
          <mxGeometry relative="1" as="geometry">
            <mxPoint x="725" y="1340" as="sourcePoint" />
          </mxGeometry>
        </mxCell>
        <mxCell id="1Kg0y6q0fFG1aNWEQ2B7-73" value="Begin" style="rounded=1;whiteSpace=wrap;html=1;" parent="WIyWlLk6GJQsqaUBKTNV-1" vertex="1">
          <mxGeometry x="665" y="1280" width="120" height="60" as="geometry" />
        </mxCell>
        <mxCell id="1Kg0y6q0fFG1aNWEQ2B7-74" value="send_http&amp;nbsp;" style="text;html=1;align=center;verticalAlign=middle;resizable=0;points=[];autosize=1;strokeColor=none;fillColor=none;" parent="WIyWlLk6GJQsqaUBKTNV-1" vertex="1">
          <mxGeometry x="590" y="1270" width="80" height="30" as="geometry" />
        </mxCell>
        <mxCell id="1Kg0y6q0fFG1aNWEQ2B7-75" value="Gửi gói dữ liệu&lt;div&gt;lên server&lt;/div&gt;" style="shape=parallelogram;perimeter=parallelogramPerimeter;whiteSpace=wrap;html=1;fixedSize=1;" parent="WIyWlLk6GJQsqaUBKTNV-1" vertex="1">
          <mxGeometry x="665" y="1460" width="120" height="60" as="geometry" />
        </mxCell>
        <mxCell id="1Kg0y6q0fFG1aNWEQ2B7-83" value="" style="edgeStyle=orthogonalEdgeStyle;rounded=0;orthogonalLoop=1;jettySize=auto;html=1;" parent="WIyWlLk6GJQsqaUBKTNV-1" source="1Kg0y6q0fFG1aNWEQ2B7-84" target="1Kg0y6q0fFG1aNWEQ2B7-88" edge="1">
          <mxGeometry relative="1" as="geometry" />
        </mxCell>
        <mxCell id="1Kg0y6q0fFG1aNWEQ2B7-84" value="Đóng gói các dữ liệu" style="rounded=0;whiteSpace=wrap;html=1;" parent="WIyWlLk6GJQsqaUBKTNV-1" vertex="1">
          <mxGeometry x="665" y="1680" width="120" height="60" as="geometry" />
        </mxCell>
        <mxCell id="1Kg0y6q0fFG1aNWEQ2B7-85" value="" style="edgeStyle=orthogonalEdgeStyle;rounded=0;orthogonalLoop=1;jettySize=auto;html=1;" parent="WIyWlLk6GJQsqaUBKTNV-1" target="1Kg0y6q0fFG1aNWEQ2B7-84" edge="1">
          <mxGeometry relative="1" as="geometry">
            <mxPoint x="725" y="1650" as="sourcePoint" />
          </mxGeometry>
        </mxCell>
        <mxCell id="1Kg0y6q0fFG1aNWEQ2B7-86" value="Begin" style="rounded=1;whiteSpace=wrap;html=1;" parent="WIyWlLk6GJQsqaUBKTNV-1" vertex="1">
          <mxGeometry x="665" y="1590" width="120" height="60" as="geometry" />
        </mxCell>
        <mxCell id="1Kg0y6q0fFG1aNWEQ2B7-87" value="send_mqtt" style="text;html=1;align=center;verticalAlign=middle;resizable=0;points=[];autosize=1;strokeColor=none;fillColor=none;" parent="WIyWlLk6GJQsqaUBKTNV-1" vertex="1">
          <mxGeometry x="590" y="1580" width="80" height="30" as="geometry" />
        </mxCell>
        <mxCell id="1Kg0y6q0fFG1aNWEQ2B7-88" value="Gửi gói dữ liệu&lt;div&gt;lên server&lt;/div&gt;" style="shape=parallelogram;perimeter=parallelogramPerimeter;whiteSpace=wrap;html=1;fixedSize=1;" parent="WIyWlLk6GJQsqaUBKTNV-1" vertex="1">
          <mxGeometry x="665" y="1770" width="120" height="60" as="geometry" />
        </mxCell>
        <mxCell id="1Kg0y6q0fFG1aNWEQ2B7-92" value="" style="edgeStyle=orthogonalEdgeStyle;rounded=0;orthogonalLoop=1;jettySize=auto;html=1;" parent="WIyWlLk6GJQsqaUBKTNV-1" source="1Kg0y6q0fFG1aNWEQ2B7-89" target="1WxUAbwwoIR5ukUB5O0--5" edge="1">
          <mxGeometry relative="1" as="geometry" />
        </mxCell>
        <mxCell id="1Kg0y6q0fFG1aNWEQ2B7-89" value="Kết nối tới server&lt;div&gt;thông qua MQTT&lt;/div&gt;" style="rounded=0;whiteSpace=wrap;html=1;" parent="WIyWlLk6GJQsqaUBKTNV-1" vertex="1">
          <mxGeometry x="250" y="210" width="120" height="60" as="geometry" />
        </mxCell>
        <mxCell id="1Kg0y6q0fFG1aNWEQ2B7-93" value="" style="edgeStyle=orthogonalEdgeStyle;rounded=0;orthogonalLoop=1;jettySize=auto;html=1;" parent="WIyWlLk6GJQsqaUBKTNV-1" edge="1">
          <mxGeometry relative="1" as="geometry">
            <mxPoint x="310" y="390" as="targetPoint" />
            <mxPoint x="310" y="360" as="sourcePoint" />
          </mxGeometry>
        </mxCell>
        <mxCell id="1Kg0y6q0fFG1aNWEQ2B7-94" value="" style="edgeStyle=orthogonalEdgeStyle;rounded=0;orthogonalLoop=1;jettySize=auto;html=1;" parent="WIyWlLk6GJQsqaUBKTNV-1" source="1Kg0y6q0fFG1aNWEQ2B7-95" edge="1">
          <mxGeometry relative="1" as="geometry">
            <mxPoint x="310" y="490" as="targetPoint" />
          </mxGeometry>
        </mxCell>
        <mxCell id="1Kg0y6q0fFG1aNWEQ2B7-95" value="Đọc giá trị&amp;nbsp;&lt;span style=&quot;background-color: initial;&quot;&gt;từ&amp;nbsp;&lt;/span&gt;&lt;div&gt;&lt;span style=&quot;background-color: initial;&quot;&gt;các cảm biến&lt;/span&gt;&lt;/div&gt;" style="shape=parallelogram;perimeter=parallelogramPerimeter;whiteSpace=wrap;html=1;fixedSize=1;" parent="WIyWlLk6GJQsqaUBKTNV-1" vertex="1">
          <mxGeometry x="250" y="390" width="120" height="60" as="geometry" />
        </mxCell>
        <mxCell id="1Kg0y6q0fFG1aNWEQ2B7-96" value="" style="edgeStyle=orthogonalEdgeStyle;rounded=0;orthogonalLoop=1;jettySize=auto;html=1;" parent="WIyWlLk6GJQsqaUBKTNV-1" source="1Kg0y6q0fFG1aNWEQ2B7-97" target="1Kg0y6q0fFG1aNWEQ2B7-139" edge="1">
          <mxGeometry relative="1" as="geometry" />
        </mxCell>
        <mxCell id="1Kg0y6q0fFG1aNWEQ2B7-97" value="Delay 20s" style="rounded=0;whiteSpace=wrap;html=1;" parent="WIyWlLk6GJQsqaUBKTNV-1" vertex="1">
          <mxGeometry x="250" y="1650" width="120" height="60" as="geometry" />
        </mxCell>
        <mxCell id="1Kg0y6q0fFG1aNWEQ2B7-98" value="End" style="rounded=1;whiteSpace=wrap;html=1;" parent="WIyWlLk6GJQsqaUBKTNV-1" vertex="1">
          <mxGeometry x="250" y="1863.5" width="120" height="60" as="geometry" />
        </mxCell>
        <mxCell id="1Kg0y6q0fFG1aNWEQ2B7-99" value="" style="edgeStyle=orthogonalEdgeStyle;rounded=0;orthogonalLoop=1;jettySize=auto;html=1;" parent="WIyWlLk6GJQsqaUBKTNV-1" source="1Kg0y6q0fFG1aNWEQ2B7-100" target="1Kg0y6q0fFG1aNWEQ2B7-109" edge="1">
          <mxGeometry relative="1" as="geometry" />
        </mxCell>
        <mxCell id="1Kg0y6q0fFG1aNWEQ2B7-100" value="&lt;p style=&quot;line-height: 120%;&quot;&gt;&lt;font style=&quot;font-size: 11px;&quot;&gt;distance&amp;lt;=0?&lt;/font&gt;&lt;/p&gt;" style="rhombus;whiteSpace=wrap;html=1;" parent="WIyWlLk6GJQsqaUBKTNV-1" vertex="1">
          <mxGeometry x="270" y="710" width="80" height="80" as="geometry" />
        </mxCell>
        <mxCell id="1Kg0y6q0fFG1aNWEQ2B7-101" value="" style="edgeStyle=orthogonalEdgeStyle;rounded=0;orthogonalLoop=1;jettySize=auto;html=1;" parent="WIyWlLk6GJQsqaUBKTNV-1" source="1Kg0y6q0fFG1aNWEQ2B7-102" target="1Kg0y6q0fFG1aNWEQ2B7-104" edge="1">
          <mxGeometry relative="1" as="geometry" />
        </mxCell>
        <mxCell id="1Kg0y6q0fFG1aNWEQ2B7-102" value="humi&amp;lt;=0?" style="rhombus;whiteSpace=wrap;html=1;" parent="WIyWlLk6GJQsqaUBKTNV-1" vertex="1">
          <mxGeometry x="270" y="490" width="80" height="80" as="geometry" />
        </mxCell>
        <mxCell id="1Kg0y6q0fFG1aNWEQ2B7-103" value="" style="edgeStyle=orthogonalEdgeStyle;rounded=0;orthogonalLoop=1;jettySize=auto;html=1;" parent="WIyWlLk6GJQsqaUBKTNV-1" source="1Kg0y6q0fFG1aNWEQ2B7-104" target="1Kg0y6q0fFG1aNWEQ2B7-100" edge="1">
          <mxGeometry relative="1" as="geometry" />
        </mxCell>
        <mxCell id="1Kg0y6q0fFG1aNWEQ2B7-104" value="temp&amp;lt;=0??" style="rhombus;whiteSpace=wrap;html=1;" parent="WIyWlLk6GJQsqaUBKTNV-1" vertex="1">
          <mxGeometry x="270" y="600" width="80" height="80" as="geometry" />
        </mxCell>
        <mxCell id="1Kg0y6q0fFG1aNWEQ2B7-105" value="" style="edgeStyle=orthogonalEdgeStyle;rounded=0;orthogonalLoop=1;jettySize=auto;html=1;" parent="WIyWlLk6GJQsqaUBKTNV-1" source="1Kg0y6q0fFG1aNWEQ2B7-106" target="1Kg0y6q0fFG1aNWEQ2B7-131" edge="1">
          <mxGeometry relative="1" as="geometry" />
        </mxCell>
        <mxCell id="1Kg0y6q0fFG1aNWEQ2B7-106" value="Delay 0.5s" style="rounded=0;whiteSpace=wrap;html=1;" parent="WIyWlLk6GJQsqaUBKTNV-1" vertex="1">
          <mxGeometry x="250" y="1150" width="120" height="60" as="geometry" />
        </mxCell>
        <mxCell id="1Kg0y6q0fFG1aNWEQ2B7-107" value="" style="edgeStyle=orthogonalEdgeStyle;rounded=0;orthogonalLoop=1;jettySize=auto;html=1;" parent="WIyWlLk6GJQsqaUBKTNV-1" source="1Kg0y6q0fFG1aNWEQ2B7-109" target="1Kg0y6q0fFG1aNWEQ2B7-111" edge="1">
          <mxGeometry relative="1" as="geometry">
            <Array as="points">
              <mxPoint x="310" y="940" />
              <mxPoint x="310" y="940" />
            </Array>
          </mxGeometry>
        </mxCell>
        <mxCell id="1Kg0y6q0fFG1aNWEQ2B7-108" value="" style="edgeStyle=orthogonalEdgeStyle;rounded=0;orthogonalLoop=1;jettySize=auto;html=1;" parent="WIyWlLk6GJQsqaUBKTNV-1" source="1Kg0y6q0fFG1aNWEQ2B7-109" edge="1">
          <mxGeometry relative="1" as="geometry">
            <mxPoint x="409.9999999999999" y="870" as="targetPoint" />
          </mxGeometry>
        </mxCell>
        <mxCell id="1Kg0y6q0fFG1aNWEQ2B7-109" value="light_level&lt;div&gt;&amp;lt;=0?&lt;/div&gt;" style="rhombus;whiteSpace=wrap;html=1;" parent="WIyWlLk6GJQsqaUBKTNV-1" vertex="1">
          <mxGeometry x="270" y="830" width="80" height="80" as="geometry" />
        </mxCell>
        <mxCell id="1Kg0y6q0fFG1aNWEQ2B7-110" value="" style="edgeStyle=orthogonalEdgeStyle;rounded=0;orthogonalLoop=1;jettySize=auto;html=1;" parent="WIyWlLk6GJQsqaUBKTNV-1" source="1Kg0y6q0fFG1aNWEQ2B7-111" target="1Kg0y6q0fFG1aNWEQ2B7-129" edge="1">
          <mxGeometry relative="1" as="geometry" />
        </mxCell>
        <mxCell id="1Kg0y6q0fFG1aNWEQ2B7-111" value="Break" style="rounded=0;whiteSpace=wrap;html=1;" parent="WIyWlLk6GJQsqaUBKTNV-1" vertex="1">
          <mxGeometry x="250" y="970" width="120" height="60" as="geometry" />
        </mxCell>
        <mxCell id="1Kg0y6q0fFG1aNWEQ2B7-112" value="" style="endArrow=classic;html=1;rounded=0;" parent="WIyWlLk6GJQsqaUBKTNV-1" edge="1">
          <mxGeometry width="50" height="50" relative="1" as="geometry">
            <mxPoint x="310" y="940" as="sourcePoint" />
            <mxPoint x="310" y="370" as="targetPoint" />
            <Array as="points">
              <mxPoint x="200" y="940" />
              <mxPoint x="200" y="370" />
            </Array>
          </mxGeometry>
        </mxCell>
        <mxCell id="1Kg0y6q0fFG1aNWEQ2B7-113" value="Sai" style="text;html=1;align=center;verticalAlign=middle;resizable=0;points=[];autosize=1;strokeColor=none;fillColor=none;" parent="WIyWlLk6GJQsqaUBKTNV-1" vertex="1">
          <mxGeometry x="310" y="910" width="40" height="30" as="geometry" />
        </mxCell>
        <mxCell id="1Kg0y6q0fFG1aNWEQ2B7-114" value="Đúng" style="text;html=1;align=center;verticalAlign=middle;resizable=0;points=[];autosize=1;strokeColor=none;fillColor=none;" parent="WIyWlLk6GJQsqaUBKTNV-1" vertex="1">
          <mxGeometry x="350" y="840" width="50" height="30" as="geometry" />
        </mxCell>
        <mxCell id="1Kg0y6q0fFG1aNWEQ2B7-115" value="" style="edgeStyle=orthogonalEdgeStyle;rounded=0;orthogonalLoop=1;jettySize=auto;html=1;" parent="WIyWlLk6GJQsqaUBKTNV-1" edge="1">
          <mxGeometry relative="1" as="geometry">
            <mxPoint x="350" y="750" as="sourcePoint" />
            <mxPoint x="409.9999999999999" y="750" as="targetPoint" />
          </mxGeometry>
        </mxCell>
        <mxCell id="1Kg0y6q0fFG1aNWEQ2B7-116" value="Đúng" style="text;html=1;align=center;verticalAlign=middle;resizable=0;points=[];autosize=1;strokeColor=none;fillColor=none;" parent="WIyWlLk6GJQsqaUBKTNV-1" vertex="1">
          <mxGeometry x="350" y="720" width="50" height="30" as="geometry" />
        </mxCell>
        <mxCell id="1Kg0y6q0fFG1aNWEQ2B7-117" value="" style="edgeStyle=orthogonalEdgeStyle;rounded=0;orthogonalLoop=1;jettySize=auto;html=1;" parent="WIyWlLk6GJQsqaUBKTNV-1" edge="1">
          <mxGeometry relative="1" as="geometry">
            <mxPoint x="350" y="640" as="sourcePoint" />
            <mxPoint x="409.9999999999999" y="640" as="targetPoint" />
          </mxGeometry>
        </mxCell>
        <mxCell id="1Kg0y6q0fFG1aNWEQ2B7-118" value="Đúng" style="text;html=1;align=center;verticalAlign=middle;resizable=0;points=[];autosize=1;strokeColor=none;fillColor=none;" parent="WIyWlLk6GJQsqaUBKTNV-1" vertex="1">
          <mxGeometry x="350" y="610" width="50" height="30" as="geometry" />
        </mxCell>
        <mxCell id="1Kg0y6q0fFG1aNWEQ2B7-119" value="" style="edgeStyle=orthogonalEdgeStyle;rounded=0;orthogonalLoop=1;jettySize=auto;html=1;" parent="WIyWlLk6GJQsqaUBKTNV-1" edge="1">
          <mxGeometry relative="1" as="geometry">
            <mxPoint x="350" y="530" as="sourcePoint" />
            <mxPoint x="409.9999999999999" y="530" as="targetPoint" />
          </mxGeometry>
        </mxCell>
        <mxCell id="1Kg0y6q0fFG1aNWEQ2B7-120" value="Đúng" style="text;html=1;align=center;verticalAlign=middle;resizable=0;points=[];autosize=1;strokeColor=none;fillColor=none;" parent="WIyWlLk6GJQsqaUBKTNV-1" vertex="1">
          <mxGeometry x="350" y="500" width="50" height="30" as="geometry" />
        </mxCell>
        <mxCell id="1Kg0y6q0fFG1aNWEQ2B7-121" value="Sai" style="text;html=1;align=center;verticalAlign=middle;resizable=0;points=[];autosize=1;strokeColor=none;fillColor=none;" parent="WIyWlLk6GJQsqaUBKTNV-1" vertex="1">
          <mxGeometry x="310" y="560" width="40" height="30" as="geometry" />
        </mxCell>
        <mxCell id="1Kg0y6q0fFG1aNWEQ2B7-122" value="Sai" style="text;html=1;align=center;verticalAlign=middle;resizable=0;points=[];autosize=1;strokeColor=none;fillColor=none;" parent="WIyWlLk6GJQsqaUBKTNV-1" vertex="1">
          <mxGeometry x="310" y="670" width="40" height="30" as="geometry" />
        </mxCell>
        <mxCell id="1Kg0y6q0fFG1aNWEQ2B7-123" value="Sai" style="text;html=1;align=center;verticalAlign=middle;resizable=0;points=[];autosize=1;strokeColor=none;fillColor=none;" parent="WIyWlLk6GJQsqaUBKTNV-1" vertex="1">
          <mxGeometry x="310" y="790" width="40" height="30" as="geometry" />
        </mxCell>
        <mxCell id="1Kg0y6q0fFG1aNWEQ2B7-124" value="In ra màn hình&amp;nbsp;&lt;div&gt;lỗi độ ẩm&lt;/div&gt;" style="shape=parallelogram;perimeter=parallelogramPerimeter;whiteSpace=wrap;html=1;fixedSize=1;" parent="WIyWlLk6GJQsqaUBKTNV-1" vertex="1">
          <mxGeometry x="400" y="500" width="120" height="60" as="geometry" />
        </mxCell>
        <mxCell id="1Kg0y6q0fFG1aNWEQ2B7-125" value="In ra màn hình&amp;nbsp;&lt;div&gt;lỗi độ sáng&lt;/div&gt;" style="shape=parallelogram;perimeter=parallelogramPerimeter;whiteSpace=wrap;html=1;fixedSize=1;" parent="WIyWlLk6GJQsqaUBKTNV-1" vertex="1">
          <mxGeometry x="400" y="840" width="120" height="60" as="geometry" />
        </mxCell>
        <mxCell id="1Kg0y6q0fFG1aNWEQ2B7-126" value="In ra màn hình&amp;nbsp;&lt;div&gt;lỗi nhiệt độ&lt;/div&gt;" style="shape=parallelogram;perimeter=parallelogramPerimeter;whiteSpace=wrap;html=1;fixedSize=1;" parent="WIyWlLk6GJQsqaUBKTNV-1" vertex="1">
          <mxGeometry x="400" y="610" width="120" height="60" as="geometry" />
        </mxCell>
        <mxCell id="1Kg0y6q0fFG1aNWEQ2B7-127" value="In ra màn hình&amp;nbsp;&lt;div&gt;lỗi khoảng cách&lt;/div&gt;" style="shape=parallelogram;perimeter=parallelogramPerimeter;whiteSpace=wrap;html=1;fixedSize=1;" parent="WIyWlLk6GJQsqaUBKTNV-1" vertex="1">
          <mxGeometry x="400" y="720" width="120" height="60" as="geometry" />
        </mxCell>
        <mxCell id="1Kg0y6q0fFG1aNWEQ2B7-128" value="" style="edgeStyle=orthogonalEdgeStyle;rounded=0;orthogonalLoop=1;jettySize=auto;html=1;" parent="WIyWlLk6GJQsqaUBKTNV-1" source="1Kg0y6q0fFG1aNWEQ2B7-129" target="1Kg0y6q0fFG1aNWEQ2B7-106" edge="1">
          <mxGeometry relative="1" as="geometry" />
        </mxCell>
        <mxCell id="1Kg0y6q0fFG1aNWEQ2B7-129" value="Xoá màn hình&lt;div&gt;&amp;nbsp;LCD&lt;/div&gt;" style="shape=parallelogram;perimeter=parallelogramPerimeter;whiteSpace=wrap;html=1;fixedSize=1;" parent="WIyWlLk6GJQsqaUBKTNV-1" vertex="1">
          <mxGeometry x="250" y="1060" width="120" height="60" as="geometry" />
        </mxCell>
        <mxCell id="1Kg0y6q0fFG1aNWEQ2B7-130" value="" style="edgeStyle=orthogonalEdgeStyle;rounded=0;orthogonalLoop=1;jettySize=auto;html=1;" parent="WIyWlLk6GJQsqaUBKTNV-1" source="1Kg0y6q0fFG1aNWEQ2B7-131" target="1Kg0y6q0fFG1aNWEQ2B7-133" edge="1">
          <mxGeometry relative="1" as="geometry" />
        </mxCell>
        <mxCell id="1Kg0y6q0fFG1aNWEQ2B7-131" value="&lt;font style=&quot;font-size: 11px;&quot;&gt;In ra màn hình&lt;/font&gt;&lt;div style=&quot;font-size: 11px;&quot;&gt;&lt;font style=&quot;font-size: 11px;&quot;&gt;LCD nhiệt độ,&lt;/font&gt;&lt;/div&gt;&lt;div style=&quot;font-size: 11px;&quot;&gt;&lt;font style=&quot;font-size: 11px;&quot;&gt;độ ẩm, khoảng&lt;/font&gt;&lt;/div&gt;&lt;div style=&quot;font-size: 11px;&quot;&gt;&lt;font style=&quot;font-size: 11px;&quot;&gt;cách&amp;nbsp;&lt;/font&gt;&lt;span style=&quot;background-color: initial;&quot;&gt;độ sáng&lt;/span&gt;&lt;/div&gt;" style="shape=parallelogram;perimeter=parallelogramPerimeter;whiteSpace=wrap;html=1;fixedSize=1;" parent="WIyWlLk6GJQsqaUBKTNV-1" vertex="1">
          <mxGeometry x="250" y="1240" width="120" height="60" as="geometry" />
        </mxCell>
        <mxCell id="1Kg0y6q0fFG1aNWEQ2B7-132" value="" style="edgeStyle=orthogonalEdgeStyle;rounded=0;orthogonalLoop=1;jettySize=auto;html=1;" parent="WIyWlLk6GJQsqaUBKTNV-1" source="1Kg0y6q0fFG1aNWEQ2B7-133" edge="1">
          <mxGeometry relative="1" as="geometry">
            <mxPoint x="310" y="1430" as="targetPoint" />
          </mxGeometry>
        </mxCell>
        <mxCell id="1Kg0y6q0fFG1aNWEQ2B7-133" value="Lưu các giá trị cảm&lt;div&gt;biến vào dictionary&lt;/div&gt;" style="whiteSpace=wrap;html=1;" parent="WIyWlLk6GJQsqaUBKTNV-1" vertex="1">
          <mxGeometry x="250" y="1330" width="120" height="60" as="geometry" />
        </mxCell>
        <mxCell id="1Kg0y6q0fFG1aNWEQ2B7-134" value="" style="edgeStyle=orthogonalEdgeStyle;rounded=0;orthogonalLoop=1;jettySize=auto;html=1;" parent="WIyWlLk6GJQsqaUBKTNV-1" source="1Kg0y6q0fFG1aNWEQ2B7-135" target="1Kg0y6q0fFG1aNWEQ2B7-137" edge="1">
          <mxGeometry relative="1" as="geometry" />
        </mxCell>
        <mxCell id="kFfIAct_AaUFbsL4x-Hx-2" value="" style="edgeStyle=orthogonalEdgeStyle;rounded=0;orthogonalLoop=1;jettySize=auto;html=1;" edge="1" parent="WIyWlLk6GJQsqaUBKTNV-1" source="1Kg0y6q0fFG1aNWEQ2B7-135" target="kFfIAct_AaUFbsL4x-Hx-3">
          <mxGeometry relative="1" as="geometry">
            <mxPoint x="410.0000000000002" y="1470" as="targetPoint" />
          </mxGeometry>
        </mxCell>
        <mxCell id="1Kg0y6q0fFG1aNWEQ2B7-135" value="try send_http" style="rhombus;whiteSpace=wrap;html=1;" parent="WIyWlLk6GJQsqaUBKTNV-1" vertex="1">
          <mxGeometry x="270" y="1430" width="80" height="80" as="geometry" />
        </mxCell>
        <mxCell id="1Kg0y6q0fFG1aNWEQ2B7-136" value="" style="edgeStyle=orthogonalEdgeStyle;rounded=0;orthogonalLoop=1;jettySize=auto;html=1;" parent="WIyWlLk6GJQsqaUBKTNV-1" source="1Kg0y6q0fFG1aNWEQ2B7-137" target="1Kg0y6q0fFG1aNWEQ2B7-97" edge="1">
          <mxGeometry relative="1" as="geometry" />
        </mxCell>
        <mxCell id="1Kg0y6q0fFG1aNWEQ2B7-137" value="try send_mqtt" style="rhombus;whiteSpace=wrap;html=1;" parent="WIyWlLk6GJQsqaUBKTNV-1" vertex="1">
          <mxGeometry x="270" y="1540" width="80" height="80" as="geometry" />
        </mxCell>
        <mxCell id="1Kg0y6q0fFG1aNWEQ2B7-138" value="" style="edgeStyle=orthogonalEdgeStyle;rounded=0;orthogonalLoop=1;jettySize=auto;html=1;" parent="WIyWlLk6GJQsqaUBKTNV-1" source="1Kg0y6q0fFG1aNWEQ2B7-139" target="1Kg0y6q0fFG1aNWEQ2B7-98" edge="1">
          <mxGeometry relative="1" as="geometry" />
        </mxCell>
        <mxCell id="1Kg0y6q0fFG1aNWEQ2B7-139" value="Ctrl+C&lt;div&gt;or terminate&lt;/div&gt;" style="rhombus;whiteSpace=wrap;html=1;" parent="WIyWlLk6GJQsqaUBKTNV-1" vertex="1">
          <mxGeometry x="270" y="1750" width="80" height="80" as="geometry" />
        </mxCell>
        <mxCell id="1Kg0y6q0fFG1aNWEQ2B7-140" value="" style="endArrow=classic;html=1;rounded=0;exitX=0;exitY=0.5;exitDx=0;exitDy=0;" parent="WIyWlLk6GJQsqaUBKTNV-1" edge="1">
          <mxGeometry width="50" height="50" relative="1" as="geometry">
            <mxPoint x="270" y="1790" as="sourcePoint" />
            <mxPoint x="310" y="370" as="targetPoint" />
            <Array as="points">
              <mxPoint x="120" y="1790" />
              <mxPoint x="120" y="370" />
            </Array>
          </mxGeometry>
        </mxCell>
        <mxCell id="kFfIAct_AaUFbsL4x-Hx-3" value="In ra màn hình lỗi http" style="shape=parallelogram;perimeter=parallelogramPerimeter;whiteSpace=wrap;html=1;fixedSize=1;" vertex="1" parent="WIyWlLk6GJQsqaUBKTNV-1">
          <mxGeometry x="390" y="1435" width="160" height="70" as="geometry" />
        </mxCell>
        <mxCell id="kFfIAct_AaUFbsL4x-Hx-4" value="" style="edgeStyle=orthogonalEdgeStyle;rounded=0;orthogonalLoop=1;jettySize=auto;html=1;" edge="1" parent="WIyWlLk6GJQsqaUBKTNV-1" target="kFfIAct_AaUFbsL4x-Hx-5">
          <mxGeometry relative="1" as="geometry">
            <mxPoint x="350" y="1580" as="sourcePoint" />
            <mxPoint x="410.0000000000002" y="1580" as="targetPoint" />
          </mxGeometry>
        </mxCell>
        <mxCell id="kFfIAct_AaUFbsL4x-Hx-5" value="In ra màn hình lỗi mqtt" style="shape=parallelogram;perimeter=parallelogramPerimeter;whiteSpace=wrap;html=1;fixedSize=1;" vertex="1" parent="WIyWlLk6GJQsqaUBKTNV-1">
          <mxGeometry x="380" y="1545" width="160" height="70" as="geometry" />
        </mxCell>
        <mxCell id="kFfIAct_AaUFbsL4x-Hx-6" value="Đúng" style="text;html=1;align=center;verticalAlign=middle;resizable=0;points=[];autosize=1;strokeColor=none;fillColor=none;" vertex="1" parent="WIyWlLk6GJQsqaUBKTNV-1">
          <mxGeometry x="250" y="1615" width="50" height="30" as="geometry" />
        </mxCell>
        <mxCell id="kFfIAct_AaUFbsL4x-Hx-7" value="Đúng" style="text;html=1;align=center;verticalAlign=middle;resizable=0;points=[];autosize=1;strokeColor=none;fillColor=none;" vertex="1" parent="WIyWlLk6GJQsqaUBKTNV-1">
          <mxGeometry x="250" y="1505" width="50" height="30" as="geometry" />
        </mxCell>
        <mxCell id="kFfIAct_AaUFbsL4x-Hx-8" value="Sai" style="text;html=1;align=center;verticalAlign=middle;resizable=0;points=[];autosize=1;strokeColor=none;fillColor=none;" vertex="1" parent="WIyWlLk6GJQsqaUBKTNV-1">
          <mxGeometry x="350" y="1435" width="40" height="30" as="geometry" />
        </mxCell>
        <mxCell id="kFfIAct_AaUFbsL4x-Hx-9" value="Sai" style="text;html=1;align=center;verticalAlign=middle;resizable=0;points=[];autosize=1;strokeColor=none;fillColor=none;" vertex="1" parent="WIyWlLk6GJQsqaUBKTNV-1">
          <mxGeometry x="350" y="1545" width="40" height="30" as="geometry" />
        </mxCell>
        <mxCell id="kFfIAct_AaUFbsL4x-Hx-10" value="Đúng" style="text;html=1;align=center;verticalAlign=middle;resizable=0;points=[];autosize=1;strokeColor=none;fillColor=none;" vertex="1" parent="WIyWlLk6GJQsqaUBKTNV-1">
          <mxGeometry x="320" y="1830" width="50" height="30" as="geometry" />
        </mxCell>
        <mxCell id="kFfIAct_AaUFbsL4x-Hx-11" value="Sai" style="text;html=1;align=center;verticalAlign=middle;resizable=0;points=[];autosize=1;strokeColor=none;fillColor=none;" vertex="1" parent="WIyWlLk6GJQsqaUBKTNV-1">
          <mxGeometry x="190" y="1754" width="40" height="30" as="geometry" />
        </mxCell>
      </root>
    </mxGraphModel>
  </diagram>
</mxfile>
